<svg xmlns="http://www.w3.org/2000/svg" width="37" height="40">
  <path d="M33.875.1H5.687C2.857.1.562 2.32.562 5.06v29.776c0 2.74 2.295 4.963 5.125 4.963h28.188c1.415 0 2.562-1.11 2.562-2.48V2.58c0-1.37-1.147-2.48-2.562-2.48zm-2.563 23.65c0 .685-.573 1.24-1.28 1.24h-17.94c-.707 0-1.28-.555-1.28-1.24V6.302c0-.685.573-1.24 1.28-1.24H30.03c.71 0 1.282.555 1.282 1.24zm0 9.848c0 .685-.573 1.24-1.28 1.24H8.222c-1.4 0-2.536-1.1-2.536-2.456v-.05c0-1.357 1.136-2.456 2.537-2.456H30.03c.71 0 1.282.555 1.282 1.24zm-6.406-23.573H17.22c-.71 0-1.282.555-1.282 1.24v2.482c0 .685.573 1.24 1.28 1.24h7.688c.708 0 1.28-.555 1.28-1.24v-2.482c0-.685-.572-1.24-1.28-1.24z" fill="#f7c35a"/>
</svg>
